<svg xmlns="http://www.w3.org/2000/svg" xmlns:xlink="http://www.w3.org/1999/xlink" id="Layer_2" data-name="Layer 2" width="594" height="182.226" viewBox="0 0 594 182.226"><defs><clipPath id="clip-path" transform="translate(-6.614 -19.2)"><path id="SVGID" d="M432.752,159.547c-3.517-20.265-3.9-45.912-4.655-71.865-.037-1.317-1.58-1.767-1.612-3.088-.45-18.3-.353-37.1.121-55.242.216-8.258,10.03-10.881,17.684-9,6.568,1.611,7.471,3.639,7.958,9,1.475,16.287-1.006,33.592-3.886,55.176-.157,1.187-1.323,1-1.482,2.216-2.591,19.616-4.335,44.141-4.747,73.094l-2.4.364.065,7.512c.035,4.137,6.569,1.252-1.007,9.2-.737.775-.332,5.532-.431,7.111h1.87v3.3h-6.5v-3.3h1.65l-.337-24.267-2.29-.216Z" style="fill:none"/></clipPath></defs><title>logo</title><g id="Layer_1"><path d="M432.752,159.547c-3.517-20.265-3.9-45.912-4.655-71.865-.037-1.317-1.58-1.767-1.612-3.088-.45-18.3-.353-37.1.121-55.242.216-8.258,10.03-10.881,17.684-9,6.568,1.611,7.471,3.639,7.958,9,1.475,16.287-1.006,33.592-3.886,55.176-.157,1.187-1.323,1-1.482,2.216-2.591,19.616-4.335,44.141-4.747,73.094l-2.4.364.065,7.512c.035,4.137,6.569,1.252-1.007,9.2-.737.775-.332,5.532-.431,7.111h1.87v3.3h-6.5v-3.3h1.65l-.337-24.267-2.29-.216Z" transform="translate(-6.614 -19.2)" style="fill:#5ffe4a;fill-rule:evenodd"/><g style="clip-path:url(#clip-path)"><g id="_110787248" data-name=" 110787248"><polygon id="_315939360" data-name=" 315939360" points="422.683 109.231 436.559 109.231 436.559 110.452 422.683 110.452 422.683 109.231" style="fill:#605d5c;fill-rule:evenodd"/><polygon id="_315939480" data-name=" 315939480" points="423.03 116.854 436.388 116.854 436.388 118.075 423.03 118.075 423.03 116.854" style="fill:#605d5c;fill-rule:evenodd"/><polygon id="_315939576" data-name=" 315939576" points="423.436 120.567 436.125 120.567 436.125 121.79 423.436 121.79 423.436 120.567" style="fill:#605d5c;fill-rule:evenodd"/><polygon id="_315937416" data-name=" 315937416" points="423.728 123.109 435.99 123.109 435.99 124.33 423.728 124.33 423.728 123.109" style="fill:#605d5c;fill-rule:evenodd"/><polygon id="_315929304" data-name=" 315929304" points="424.035 125.648 435.878 125.648 435.878 126.872 424.035 126.872 424.035 125.648" style="fill:#605d5c;fill-rule:evenodd"/><polygon id="_110787392" data-name=" 110787392" points="424.363 131.318 435.416 131.318 435.416 132.541 424.363 132.541 424.363 131.318" style="fill:#605d5c;fill-rule:evenodd"/><path id="_110787728" data-name=" 110787728" d="M426.372,79.442l.114,5.242c7.377-3.662,15.895-2.691,21.769-.294l.657-4.8c-6.132-3.2-14.246-3.914-22.54-.144Z" transform="translate(-6.614 -19.2)" style="fill:#fff;fill-rule:evenodd"/><path id="_110787368" data-name=" 110787368" d="M426.652,79.629l.1,4.611a24.531,24.531,0,0,1,10.175-2.265,29.82,29.82,0,0,1,11.1,2.017l.58-4.24a23.787,23.787,0,0,0-10.7-2.574,27.078,27.078,0,0,0-11.259,2.451Zm-.445,5.062-.114-5.242,0-.191.17-.078A27.663,27.663,0,0,1,437.913,76.6a24.337,24.337,0,0,1,11.122,2.727l.177.094-.027.2-.656,4.8-.05.361-.326-.133a29.219,29.219,0,0,0-11.22-2.109A23.893,23.893,0,0,0,426.6,84.944l-.387.192-.01-.445Z" transform="translate(-6.614 -19.2)" style="fill:#605d5c"/><path id="_110787632" data-name=" 110787632" d="M441.585,36.091V67.2a4,4,0,0,1,.927,1.2,3.61,3.61,0,0,1,.389,1.628,3.77,3.77,0,0,1-1.345,2.847h0a4.923,4.923,0,0,1-6.315,0h0a3.775,3.775,0,0,1-1.346-2.847,3.61,3.61,0,0,1,.389-1.628,4.011,4.011,0,0,1,.927-1.2V36.091a4.023,4.023,0,0,1-.927-1.2,3.61,3.61,0,0,1-.389-1.628,3.776,3.776,0,0,1,1.345-2.848,4.923,4.923,0,0,1,6.315,0h0a3.77,3.77,0,0,1,1.345,2.847,3.6,3.6,0,0,1-.389,1.628,4.007,4.007,0,0,1-.927,1.2ZM440.751,67.4V35.677l.162-.13a3.228,3.228,0,0,0,.86-1.049,2.734,2.734,0,0,0,.294-1.231,2.913,2.913,0,0,0-1.046-2.19h0a4.117,4.117,0,0,0-5.239,0,2.911,2.911,0,0,0-1.048,2.19,2.721,2.721,0,0,0,.295,1.231,3.212,3.212,0,0,0,.859,1.049l.161.13V67.613l-.161.129a3.215,3.215,0,0,0-.859,1.05,2.714,2.714,0,0,0-.295,1.23,2.911,2.911,0,0,0,1.046,2.19h0a4.115,4.115,0,0,0,5.238,0h0a2.911,2.911,0,0,0,1.046-2.19,2.717,2.717,0,0,0-.3-1.23,3.215,3.215,0,0,0-.859-1.05l-.162-.129V67.4Z" transform="translate(-6.614 -19.2)" style="fill:#605d5c"/></g></g><path d="M432.752,159.547c-3.517-20.265-3.9-45.912-4.655-71.865-.037-1.317-1.58-1.767-1.612-3.088-.45-18.3-.353-37.1.121-55.242.216-8.258,10.03-10.881,17.684-9,6.568,1.611,7.471,3.639,7.958,9,1.475,16.287-1.006,33.592-3.886,55.176-.157,1.187-1.323,1-1.482,2.216-2.591,19.616-4.335,44.141-4.747,73.094l-2.4.364.065,7.512c.035,4.137,6.569,1.252-1.007,9.2-.737.775-.332,5.532-.431,7.111h1.87v3.3h-6.5v-3.3h1.65l-.337-24.267-2.29-.216Z" transform="translate(-6.614 -19.2)" style="fill:none"/><path d="M553.066,124.769a9.185,9.185,0,0,1-.085-1.812c-.33-6.452-.726-12.644,5.5-14.828,5.581-1.956,16.08-2.531,17.67,4.812l.284,1.314C578.882,128.173,570,136.3,560.814,132.9c-4.517-1.67-6.133-1.774-7.748-8.132Zm-15.289,27.848-.062,7.68c-.03,4.062,1.1,5.647,4.718,7.913,6.378,4,20,4.382,30.778,5.727,4.849.6,6.211-.041,6.52,5.78.289,5.458-4.119,6.567-16.727,6.4-9.527-.126-17.108-2.948-24.972-2.87l-1.663,10.5c-.649,4.1,1.661,4.368,4.954,4.791,15.2,1.949,33.13,4.608,46.98-1.386,6.576-2.846,8.788-9.749,8.554-19.93-.318-13.952-4.218-12.366-12.259-17.489l-.659.189-22.221-1.967-5.224-.934c1.011-10.838,6.576-7.7,15.883-8.8,23.405-2.762,23.7-21.214,19.818-43.141l7.362-.928.247-7.047.234-3.124-1.362-1.2c-18.722,1.349-43.375-5.139-56.094,5.11-6.207,5-7.051,14.431-7.006,24.906.073,16.552,5.731,17.342,9.5,22.43-2.518,1.454-1.986.839-4.015,3.177-1.127,1.3-.448.7-1.582,2.137-2.36,2.994-.339.686-1.707,2.068Z" transform="translate(-6.614 -19.2)" style="fill:#5ffe4a;fill-rule:evenodd"/><path d="M154.58,62.162l-.13,106.32,2.631.076,15.6-.071-.048-52.413c4-1.184,7.6-3.228,12-4.586,5.74-1.775,9.851-3.027,12.316,2.337,2.315,7.808.433,43.142.627,54.663l2.625.089,15.615-.089c-.424-21.445,3.359-54.484-3.607-71.83l-1.11-1.237-1.261-1.21c-7.907-3.114-7.153-2.734-17.061-2.466-2.71,1.187-6.855,1.642-10.113,2.739-3.989,1.345-6.073,2.631-10.062,4.171l.322-36.867c-1.905-4.022-13.118-1.028-18.345.374Z" transform="translate(-6.614 -19.2)" style="fill:#02d7ff;fill-rule:evenodd"/><path d="M21.53,119.388c10.589,4.127,22.229,5.723,31.805,10.23,5.307,30.493-11.128,24.275-34.176,21.348l-8.033-2.435-3.853,15.61L11.77,166c21.273,3.875,56.24,10.946,60.85-15.333,6.814-38.838-10.966-37.681-38.925-45.255l-1.3-1.186c-5.776-3.352-9.028-21.12,4.137-23.177,11.17-1.745,22.248,1.582,33,2.416l1.522-12.706.1-3.641c-15.69-2.761-42.2-7.2-54.39,3.315-9.809,8.463-9.75,35.125-3.2,43.652,1.954,2.541,5.283,4.265,7.958,5.306Z" transform="translate(-6.614 -19.2)" style="fill:#02d7ff;fill-rule:evenodd"/><path d="M252.992,148.855l-.947-1.581c-1.372-5.477-1.887-24.073-.748-30.091,1.74-9.206,11.428-10.538,20.709-7.769l1.512.861,1.418.841.711,1.614c3.045,4.816,3.291,27.888,1.44,33.641-1.565,4.863-4.953,6.842-11,7.343C260.138,154.209,255.221,153.165,252.992,148.855Zm-3.026,19.356c16.067,2.706,31.379,2.21,40.175-8.189,7.423-8.773,5.862-21.325,5.622-33.48-.2-10.375,1.166-14.213-4.8-24.082a15.771,15.771,0,0,0-3.019-3.592c-11.419-10.285-38.329-10.339-49.531,2.691-8.117,9.443-8.251,43.854-2.541,54.909l1.352,2.287c.144.217.348.513.5.725,4.625,6.48,9.478,6.283,12.243,8.731Z" transform="translate(-6.614 -19.2)" style="fill:#02d7ff;fill-rule:evenodd"/><path d="M87.807,116.524c-.223,5.232-.035,10.865-.037,16.143-.008,11.594-.913,17.238,4,26.776,8.515,11.21,28.332,12.653,44.951,7.665l-1.475-12.135-.264-3.159c-5.138.938-12.692,2.984-18.126,1.875-3.567-.726-9.909-1.952-10.281-6.556-.85-10.566-3.025-29.192,2.106-36.136,5.9-4.762,15.185-2.9,23.567-1.69,3.077-1.016,2-.418,3.456-3.1l.232-4.1.893-7.841-5.392-1.238c-11.718-1.962-17.686-2.249-24.65.137-10.732,3.68-18.462,11.23-18.979,23.364Z" transform="translate(-6.614 -19.2)" style="fill:#02d7ff;fill-rule:evenodd"/><path d="M391.577,62.142l-.108,106.376,2.56.017,15.678-.035.274-106.725C408.377,58.7,398.389,61.833,391.577,62.142Z" transform="translate(-6.614 -19.2)" style="fill:#02d7ff;fill-rule:evenodd"/><path d="M331.053,148.855l-.947-1.581c-1.372-5.477-1.886-24.073-.748-30.091,1.74-9.206,11.428-10.538,20.709-7.769l1.512.861,1.419.841.711,1.614c3.044,4.816,3.29,27.888,1.439,33.641-1.565,4.863-4.953,6.842-11,7.343C338.2,154.209,333.282,153.165,331.053,148.855Zm-3.026,19.356c16.067,2.706,31.379,2.21,40.176-8.189,7.424-8.773,5.861-21.325,5.621-33.48-.2-10.375,1.168-14.213-4.8-24.082a15.745,15.745,0,0,0-3.019-3.592c-11.419-10.285-38.329-10.339-49.531,2.691-8.116,9.443-8.251,43.854-2.541,54.909l1.354,2.287c.142.217.346.513.5.725,4.625,6.48,9.478,6.283,12.243,8.731Z" transform="translate(-6.614 -19.2)" style="fill:#02d7ff;fill-rule:evenodd"/><path d="M479.667,148.855l-.948-1.581c-1.372-5.477-1.886-24.073-.748-30.091,1.741-9.206,11.428-10.538,20.708-7.769l1.513.861,1.418.841.712,1.614c3.044,4.816,3.29,27.888,1.44,33.641-1.566,4.863-4.954,6.842-11,7.343C486.811,154.209,481.9,153.165,479.667,148.855Zm-3.026,19.356c16.065,2.706,31.377,2.21,40.174-8.189,7.424-8.773,5.861-21.325,5.623-33.48-.205-10.375,1.166-14.213-4.8-24.082a15.823,15.823,0,0,0-3.019-3.592c-11.421-10.285-38.331-10.339-49.532,2.691-8.117,9.443-8.251,43.854-2.541,54.909l1.353,2.287c.143.217.346.513.5.725,4.626,6.48,9.478,6.283,12.245,8.731Z" transform="translate(-6.614 -19.2)" style="fill:#5ffe4a;fill-rule:evenodd"/></g></svg>